<svg width="54" height="51" viewBox="0 0 54 51" fill="none" xmlns="http://www.w3.org/2000/svg">
<path d="M50.1107 9.79991L28.125 3.42991C27.8394 3.34643 27.5389 3.31644 27.2409 3.34168C26.9428 3.36692 26.653 3.44688 26.3882 3.57698C26.1233 3.70708 25.8886 3.88474 25.6976 4.09976C25.5066 4.31478 25.3629 4.56292 25.275 4.82991L20.0786 20.4099L26.9678 19.4099C27.566 19.3237 28.1763 19.4629 28.6646 19.7967C29.1528 20.1305 29.479 20.6316 29.5714 21.1899L31.2857 31.2899L42 34.3899C42.2863 34.4735 42.5875 34.5037 42.8863 34.4785C43.1851 34.4534 43.4757 34.3736 43.7414 34.2435C44.0071 34.1135 44.2427 33.9359 44.4348 33.7207C44.6268 33.5056 44.7716 33.2573 44.8607 32.9899L51.6428 12.4699C51.7333 12.2008 51.7653 11.9175 51.737 11.6367C51.7087 11.3558 51.6206 11.0831 51.4779 10.8344C51.3352 10.5858 51.1408 10.3662 50.906 10.1886C50.6712 10.0109 50.4009 9.87879 50.1107 9.79991Z" fill="#D15187"/>
<path d="M18.4286 25.3499L20.0679 20.4099L4.21071 22.7499C3.63428 22.8502 3.12092 23.1528 2.77616 23.5954C2.43141 24.0381 2.28145 24.5872 2.35714 25.1299L5.81785 46.3699C5.91275 46.9264 6.24001 47.425 6.72798 47.7568C7.21595 48.0885 7.82487 48.2263 8.42143 48.1399L31.1786 44.8699C31.7767 44.7837 32.3137 44.4793 32.6713 44.0235C33.029 43.5678 33.178 42.9982 33.0857 42.4399L31.2857 31.2899L19.9393 28.0099C19.6523 27.9289 19.3853 27.7956 19.1537 27.6177C18.9222 27.4398 18.7306 27.221 18.5902 26.9737C18.4497 26.7264 18.3632 26.4556 18.3354 26.1769C18.3077 25.8982 18.3393 25.6171 18.4286 25.3499Z" fill="#6F2CFF"/>
<path d="M27 19.42L20.1107 20.42L18.4286 25.35C18.3391 25.6166 18.307 25.897 18.3341 26.1752C18.3611 26.4534 18.4468 26.7239 18.5862 26.9711C18.7256 27.2182 18.9159 27.4373 19.1463 27.6156C19.3767 27.7939 19.6425 27.9279 19.9286 28.01L31.2857 31.29L29.5715 21.2C29.4788 20.6478 29.1573 20.1516 28.6763 19.8186C28.1952 19.4856 27.5932 19.3425 27 19.42Z" fill="#A445BB"/>
<path d="M35.0143 21.2399C36.2865 21.2399 37.3178 20.2774 37.3178 19.0899C37.3178 17.9025 36.2865 16.9399 35.0143 16.9399C33.742 16.9399 32.7107 17.9025 32.7107 19.0899C32.7107 20.2774 33.742 21.2399 35.0143 21.2399Z" fill="#F5F5F5"/>
<path d="M30.4714 13.1899C31.7436 13.1899 32.775 12.2273 32.775 11.0399C32.775 9.85248 31.7436 8.88989 30.4714 8.88989C29.1992 8.88989 28.1678 9.85248 28.1678 11.0399C28.1678 12.2273 29.1992 13.1899 30.4714 13.1899Z" fill="#F5F5F5"/>
<path d="M43.6393 17.01C44.9115 17.01 45.9428 16.0474 45.9428 14.86C45.9428 13.6725 44.9115 12.71 43.6393 12.71C42.367 12.71 41.3357 13.6725 41.3357 14.86C41.3357 16.0474 42.367 17.01 43.6393 17.01Z" fill="#F5F5F5"/>
<path d="M26.3786 25.4799C27.6508 25.4799 28.6822 24.5173 28.6822 23.3299C28.6822 22.1425 27.6508 21.1799 26.3786 21.1799C25.1064 21.1799 24.075 22.1425 24.075 23.3299C24.075 24.5173 25.1064 25.4799 26.3786 25.4799Z" fill="#F5F5F5"/>
<path d="M39.5464 29.3C40.8187 29.3 41.85 28.3374 41.85 27.15C41.85 25.9626 40.8187 25 39.5464 25C38.2742 25 37.2429 25.9626 37.2429 27.15C37.2429 28.3374 38.2742 29.3 39.5464 29.3Z" fill="#F5F5F5"/>
<path d="M17.775 36.1101C19.0472 36.1101 20.0786 35.1475 20.0786 33.9601C20.0786 32.7726 19.0472 31.8101 17.775 31.8101C16.5028 31.8101 15.4714 32.7726 15.4714 33.9601C15.4714 35.1475 16.5028 36.1101 17.775 36.1101Z" fill="#F5F5F5"/>
<path d="M9.90001 30.7299C11.1722 30.7299 12.2036 29.7673 12.2036 28.5799C12.2036 27.3925 11.1722 26.4299 9.90001 26.4299C8.62778 26.4299 7.59644 27.3925 7.59644 28.5799C7.59644 29.7673 8.62778 30.7299 9.90001 30.7299Z" fill="#F5F5F5"/>
<path d="M25.6393 41.4799C26.9115 41.4799 27.9428 40.5173 27.9428 39.3299C27.9428 38.1425 26.9115 37.1799 25.6393 37.1799C24.367 37.1799 23.3357 38.1425 23.3357 39.3299C23.3357 40.5173 24.367 41.4799 25.6393 41.4799Z" fill="#F5F5F5"/>
</svg>
