<svg width="54" height="51" viewBox="0 0 54 51" fill="none" xmlns="http://www.w3.org/2000/svg">
<path d="M43.3714 26.45C41.4321 31.64 35.9893 37.38 31.5857 41.45C33.0115 42.9757 34.5434 44.4121 36.1714 45.75C36.5073 46.0304 36.9422 46.1854 37.3929 46.1854C37.8435 46.1854 38.2784 46.0304 38.6143 45.75C41.2822 43.54 47.4214 38.03 47.4214 33.9799C47.4248 32.5166 47.0601 31.0729 46.3567 29.765C45.6533 28.4572 44.6308 27.3217 43.3714 26.45Z" fill="#D15187"/>
<path d="M43.3714 26.45C41.8816 25.4129 40.1119 24.7831 38.2605 24.631C36.409 24.4789 34.5487 24.8105 32.8876 25.5888C31.2266 26.3671 29.8302 27.5613 28.8548 29.0379C27.8794 30.5145 27.3633 32.2153 27.3643 33.95C27.3643 36.26 29.3679 39.05 31.5857 41.43C35.9893 37.38 41.4321 31.64 43.3714 26.45Z" fill="#A445BB"/>
<path d="M25.35 5.3301C22.8845 5.32879 20.4429 5.78106 18.1648 6.66106C15.8867 7.54105 13.8168 8.83152 12.0735 10.4587C10.3301 12.0858 8.94746 14.0177 8.00461 16.1439C7.06175 18.2702 6.57718 20.549 6.57859 22.8501C6.57859 31.0301 20.0036 42.4301 24.1393 45.7501C24.4741 46.0203 24.902 46.169 25.3447 46.169C25.7873 46.169 26.2152 46.0203 26.55 45.7501C27.6857 44.8401 29.5179 43.3201 31.5857 41.4301C29.3679 39.0501 27.3643 36.2601 27.3643 33.9501C27.3787 31.6592 28.2937 29.453 29.9357 27.7501C28.7005 28.8517 27.0585 29.4675 25.35 29.4701C23.7878 29.4902 22.2656 29.0086 21.0384 28.1061C19.8113 27.2035 18.9537 25.9348 18.6094 24.5124C18.265 23.09 18.4548 21.6004 19.147 20.2931C19.8392 18.9858 20.9917 17.9401 22.4114 17.3314C23.8312 16.7226 25.4319 16.5877 26.9455 16.9493C28.4591 17.3108 29.7937 18.1468 30.7256 19.3173C31.6575 20.4877 32.1301 21.9215 32.0643 23.3784C31.9986 24.8354 31.3984 26.227 30.3643 27.3201C32.0662 25.7502 34.3155 24.8028 36.7027 24.6505C39.09 24.4981 41.4565 25.151 43.3714 26.4901C43.8496 25.3268 44.1105 24.0957 44.1429 22.8501C44.1443 20.5473 43.659 18.2668 42.7148 16.1393C41.7706 14.0118 40.3861 12.079 38.6404 10.4516C36.8948 8.82417 34.8223 7.53413 32.5418 6.65531C30.2612 5.77649 27.8173 5.32616 25.35 5.3301Z" fill="#6F2CFF"/>
</svg>
