<svg width="54" height="51" viewBox="0 0 54 51" fill="none" xmlns="http://www.w3.org/2000/svg">
<g clip-path="url(#clip0_1_598)">
<path d="M44.0464 30.98C44.8762 30.98 45.672 30.6723 46.2587 30.1247C46.8454 29.5771 47.175 28.8344 47.175 28.06C47.1731 27.7784 47.1261 27.4986 47.0357 27.23L41.0679 28.9C41.2574 29.5002 41.65 30.0271 42.1868 30.402C42.7236 30.7769 43.376 30.9796 44.0464 30.98Z" fill="#D15187"/>
<path d="M44.0464 25.1399C43.2186 25.1425 42.4255 25.4513 41.8411 25.9987C41.2567 26.546 40.9286 27.2872 40.9286 28.0599C40.9355 28.3451 40.986 28.628 41.0786 28.8999L47.0464 27.2299C46.8547 26.6262 46.459 26.0965 45.9183 25.7199C45.3777 25.3432 44.7211 25.1398 44.0464 25.1399Z" fill="#A445BB"/>
<path d="M6.82501 28.06C6.82425 28.7596 7.09358 29.4361 7.58368 29.9655C8.07377 30.4949 8.75181 30.8418 9.4936 30.9426C10.2354 31.0434 10.9913 30.8914 11.6228 30.5144C12.2543 30.1375 12.7191 29.5608 12.9322 28.89L6.9643 27.23C6.87389 27.4986 6.82694 27.7784 6.82501 28.06Z" fill="#D15187"/>
<path d="M9.95358 25.1399C9.28077 25.1419 8.6266 25.3464 8.08811 25.7229C7.54963 26.0994 7.15554 26.6278 6.96429 27.2299L12.9322 28.8899C13.0262 28.6218 13.0768 28.342 13.0822 28.0599C13.0822 27.6764 13.0012 27.2967 12.844 26.9425C12.6868 26.5882 12.4563 26.2663 12.1658 25.9951C11.8753 25.724 11.5304 25.5089 11.1508 25.3622C10.7713 25.2154 10.3644 25.1399 9.95358 25.1399Z" fill="#A445BB"/>
<path d="M27 36.0201C32.2309 36.0201 36.4714 32.0623 36.4714 27.1801C36.4714 22.2979 32.2309 18.3401 27 18.3401C21.7691 18.3401 17.5286 22.2979 17.5286 27.1801C17.5286 32.0623 21.7691 36.0201 27 36.0201Z" fill="#A445BB"/>
<path d="M52.5857 23.64H35.6786C35.0058 22.2011 33.9345 20.9554 32.575 20.031C31.2154 19.1065 29.6166 18.5367 27.9429 18.38V12.38C27.9443 12.2662 27.9215 12.1533 27.8759 12.0478C27.8302 11.9423 27.7625 11.8463 27.6768 11.7654C27.5911 11.6845 27.4891 11.6203 27.3766 11.5764C27.2641 11.5326 27.1434 11.51 27.0215 11.51C26.8996 11.51 26.7789 11.5326 26.6664 11.5764C26.5539 11.6203 26.4518 11.6845 26.3661 11.7654C26.2804 11.8463 26.2127 11.9423 26.1671 12.0478C26.1214 12.1533 26.0986 12.2662 26.1 12.38V18.38C24.4263 18.5367 22.8275 19.1065 21.468 20.031C20.1084 20.9554 19.0371 22.2011 18.3643 23.64H1.41432C1.1671 23.64 0.930007 23.7317 0.755196 23.8948C0.580385 24.058 0.482178 24.2793 0.482178 24.51V24.75C0.482341 24.9379 0.546909 25.1207 0.666436 25.2719C0.785963 25.423 0.954175 25.5345 1.14646 25.59L6.96432 27.23C7.17006 26.5508 7.6333 25.9645 8.26777 25.5803C8.90224 25.1962 9.66468 25.0404 10.4131 25.1419C11.1615 25.2434 11.8449 25.5954 12.3359 26.1322C12.8269 26.6691 13.0921 27.3542 13.0822 28.06C13.0768 28.3421 13.0262 28.6219 12.9322 28.89L18.1715 30.36V30.15C19.5429 32.96 22.9715 34.25 26.9893 34.25C31.0072 34.25 34.4893 32.95 35.8179 30.13V30.36L41.0465 28.9C40.9539 28.6281 40.9034 28.3452 40.8965 28.06C40.8865 27.3542 41.1517 26.6691 41.6428 26.1322C42.1338 25.5954 42.8171 25.2434 43.5656 25.1419C44.314 25.0404 45.0764 25.1962 45.7109 25.5803C46.3453 25.9645 46.8086 26.5508 47.0143 27.23L52.8322 25.6C53.0245 25.5445 53.1927 25.433 53.3122 25.2819C53.4317 25.1307 53.4963 24.9479 53.4965 24.76V24.51C53.4965 24.2827 53.4013 24.0644 53.2311 23.9018C53.0609 23.7392 52.8292 23.6452 52.5857 23.64Z" fill="#6F2CFF"/>
<path d="M32.6786 22.76V23.64L27 25.41L21.3214 23.64V22.76H32.6786Z" fill="#F5F5F5"/>
</g>
<defs>
<clipPath id="clip0_1_598">
<rect width="53.5714" height="50" fill="white" transform="translate(0.214294 0.75)"/>
</clipPath>
</defs>
</svg>
