<svg width="54" height="51" viewBox="0 0 54 51" fill="none" xmlns="http://www.w3.org/2000/svg">
<path d="M27 4.33008C25.7004 4.33089 24.4146 4.57909 23.2212 5.05951C22.0279 5.53993 20.952 6.24247 20.0595 7.12418C19.1669 8.00589 18.4765 9.04824 18.0302 10.1875C17.584 11.3268 17.3915 12.539 17.4643 13.7501L18 22.1701H36L36.5357 13.7501C36.6086 12.539 36.416 11.3268 35.9698 10.1875C35.5236 9.04824 34.8331 8.00589 33.9406 7.12418C33.048 6.24247 31.9722 5.53993 30.7788 5.05951C29.5855 4.57909 28.2997 4.33089 27 4.33008V4.33008Z" stroke="#6F2CFF" stroke-width="2.14" stroke-miterlimit="10"/>
<path d="M44.8286 47.1699H9.17145C8.92956 47.1701 8.69012 47.1247 8.46744 47.0365C8.24476 46.9484 8.04339 46.8192 7.87538 46.6568C7.70736 46.4944 7.57615 46.3021 7.48956 46.0913C7.40298 45.8805 7.36281 45.6555 7.37145 45.4299L8.35716 22.5099C8.37921 22.0784 8.57854 21.6713 8.91374 21.3734C9.24895 21.0754 9.69426 20.9094 10.1572 20.9099H43.8429C44.3058 20.9094 44.7511 21.0754 45.0863 21.3734C45.4215 21.6713 45.6208 22.0784 45.6429 22.5099L46.6286 45.4299C46.6372 45.6555 46.5971 45.8805 46.5105 46.0913C46.4239 46.3021 46.2927 46.4944 46.1247 46.6568C45.9566 46.8192 45.7553 46.9484 45.5326 47.0365C45.3099 47.1247 45.0705 47.1701 44.8286 47.1699Z" fill="#6F2CFF"/>
<path d="M45.6429 22.5099L45.75 25.1099H42.1929V29.3099H11.8071V25.1099H8.25L8.35714 22.5099C8.37919 22.0784 8.57852 21.6713 8.91372 21.3734C9.24893 21.0754 9.69424 20.9094 10.1571 20.9099H43.8429C44.3058 20.9094 44.7511 21.0754 45.0863 21.3734C45.4215 21.6713 45.6208 22.0784 45.6429 22.5099Z" fill="#D15187"/>
<path d="M42.2036 29.3101H11.8072V34.5601H42.2036V29.3101Z" fill="#A445BB"/>
<path d="M29.8179 34.5599C29.82 35.0805 29.6565 35.59 29.3482 36.0238C29.0398 36.4576 28.6005 36.7963 28.0858 36.9969C27.5711 37.1975 27.0042 37.251 26.4569 37.1506C25.9095 37.0503 25.4064 36.8006 25.0113 36.4332C24.6161 36.0658 24.3467 35.5972 24.2371 35.0867C24.1275 34.5763 24.1827 34.047 24.3956 33.5658C24.6086 33.0847 24.9697 32.6733 25.4334 32.3839C25.897 32.0944 26.4422 31.9399 27 31.9399C27.7455 31.9399 28.4606 32.2157 28.9887 32.7067C29.5169 33.1978 29.815 33.8642 29.8179 34.5599Z" fill="#D15187"/>
</svg>
