<svg width="54" height="51" viewBox="0 0 54 51" fill="none" xmlns="http://www.w3.org/2000/svg">
<path d="M27 47.1701C39.6749 47.1701 49.95 37.58 49.95 25.7501C49.95 13.9201 39.6749 4.33008 27 4.33008C14.3251 4.33008 4.04999 13.9201 4.04999 25.7501C4.04999 37.58 14.3251 47.1701 27 47.1701Z" fill="#6F2CFF"/>
<path d="M22.2214 24.34C24.0262 24.34 25.4893 22.9745 25.4893 21.29C25.4893 19.6055 24.0262 18.24 22.2214 18.24C20.4166 18.24 18.9536 19.6055 18.9536 21.29C18.9536 22.9745 20.4166 24.34 22.2214 24.34Z" fill="#D15187"/>
<path d="M31.7786 24.34C33.5834 24.34 35.0465 22.9745 35.0465 21.29C35.0465 19.6055 33.5834 18.24 31.7786 18.24C29.9738 18.24 28.5107 19.6055 28.5107 21.29C28.5107 22.9745 29.9738 24.34 31.7786 24.34Z" fill="#D15187"/>
<path d="M22.2214 33.2599C24.0262 33.2599 25.4893 31.8944 25.4893 30.2099C25.4893 28.5254 24.0262 27.1599 22.2214 27.1599C20.4166 27.1599 18.9536 28.5254 18.9536 30.2099C18.9536 31.8944 20.4166 33.2599 22.2214 33.2599Z" fill="#D15187"/>
<path d="M31.7786 33.2599C33.5834 33.2599 35.0465 31.8944 35.0465 30.2099C35.0465 28.5254 33.5834 27.1599 31.7786 27.1599C29.9738 27.1599 28.5107 28.5254 28.5107 30.2099C28.5107 31.8944 29.9738 33.2599 31.7786 33.2599Z" fill="#D15187"/>
</svg>
